<?xml version="1.0" standalone="no"?><!DOCTYPE svg PUBLIC "-//W3C//DTD SVG 1.1//EN"
        "http://www.w3.org/Graphics/SVG/1.1/DTD/svg11.dtd">
<svg t="1606523030056" class="icon" viewBox="0 0 1024 1024" version="1.1" xmlns="http://www.w3.org/2000/svg"
     p-id="49463" data-spm-anchor-id="a313x.7781069.0.i13" xmlns:xlink="http://www.w3.org/1999/xlink" width="16"
     height="16">
    <defs>
        <style type="text/css"></style>
    </defs>
    <path d="M510.976694 68.951395c-244.100484 0-442.064184 197.963701-442.064184 442.064184s197.963701 442.064184 442.064184 442.064184 442.064184-197.963701 442.064184-442.064184S755.077178 68.951395 510.976694 68.951395L510.976694 68.951395 510.976694 68.951395zM508.133949 820.357973c-35.976376 0-65.24805-28.656667-65.24805-63.922868 0-35.261085 29.167297-63.921845 65.24805-63.921845 35.970236 0 65.240887 28.66076 65.240887 63.921845C573.374836 791.701307 544.207539 820.357973 508.133949 820.357973L508.133949 820.357973 508.133949 820.357973zM683.33011 458.680631c-12.801561 20.12127-39.940664 47.456848-81.602529 82.112136-21.545712 17.884322-34.957163 32.313963-40.142256 43.290969-5.179976 10.871605-7.621585 30.387078-7.116071 58.538231l-92.880387 0c-0.203638-13.314237-0.406253-21.446451-0.406253-24.394596 0-30.079062 4.977361-54.771441 14.936177-74.182536 9.957793-19.411095 29.876448-41.259706 59.654658-65.445548 29.777187-24.289196 47.660486-40.142256 53.456492-47.660486 8.94165-11.888771 13.510712-24.99937 13.510712-39.23049 0-19.814278-8.022721-36.783765-23.877827-51.009767-15.85306-14.126742-37.398772-21.242813-64.328098-21.242813-26.016537 0-47.765887 7.41897-65.242933 22.156626-17.480116 14.731516-32.520671 47.254234-36.078707 67.375503-3.354398 19.004843-94.915743 27.033703-93.799316-11.482519 1.116427-38.516222 21.139459-80.282464 55.486732-110.565165 34.352389-30.283724 79.472006-45.428655 135.261637-45.428655 58.742892 0 105.385189 15.347546 140.140761 46.033429 34.754548 30.689976 52.033074 66.36243 52.033074 107.111506C702.434214 417.216263 696.033433 438.558337 683.33011 458.680631L683.33011 458.680631 683.33011 458.680631zM683.33011 458.680631"
          p-id="49464" data-spm-anchor-id="a313x.7781069.0.i14" class="selected" fill="#f7a818"></path>
</svg>