<?xml version="1.0" standalone="no"?><!DOCTYPE svg PUBLIC "-//W3C//DTD SVG 1.1//EN"
        "http://www.w3.org/Graphics/SVG/1.1/DTD/svg11.dtd">
<svg t="1606521344680" class="icon" viewBox="0 0 1024 1024" version="1.1" xmlns="http://www.w3.org/2000/svg"
     p-id="35806" xmlns:xlink="http://www.w3.org/1999/xlink" width="16" height="16">
    <defs>
        <style type="text/css"></style>
    </defs>
    <path d="M211.626667 970.666667a205.226667 32 0 1 0 410.453333 0 205.226667 32 0 1 0-410.453333 0Z" fill="#45413C"
          p-id="35807"></path>
    <path d="M460.373333 574.933333l54.186667-91.946666 98.986667 107.733333-82.346667 47.36-70.826667-63.146667z"
          fill="#656769" p-id="35808"></path>
    <path d="M495.36 605.653333l53.76-85.12-34.56-37.546666-54.186667 91.946666 34.986667 30.72z" fill="#87898C"
          p-id="35809"></path>
    <path d="M368.787436 747.567886m-182.477761 128.43793a223.146667 223.146667 0 1 0 364.955521-256.87586 223.146667 223.146667 0 1 0-364.955521 256.87586Z"
          fill="#656769" p-id="35810"></path>
    <path d="M393.386667 606.72a223.36 223.36 0 0 1 184.746666 217.813333 231.466667 231.466667 0 0 0 10.666667-38.826666A223.146667 223.146667 0 1 0 149.333333 709.333333a213.333333 213.333333 0 0 0-3.2 40.106667 223.146667 223.146667 0 0 1 247.253334-142.72z"
          fill="#87898C" p-id="35811"></path>
    <path d="M615.466667 182.613333L682.666667 100.906667a8.96 8.96 0 0 1 15.573333 3.413333l33.706667 133.973333a8.746667 8.746667 0 0 0 7.04 6.613334l130.346666 22.826666a8.96 8.96 0 0 1 2.773334 16.64l-135.893334 72.106667a8.96 8.96 0 0 0-4.266666 10.453333l33.28 111.146667a8.96 8.96 0 0 1-13.226667 10.24l-126.506667-78.08a9.6 9.6 0 0 0-8.32 0L529.066667 448a8.96 8.96 0 0 1-12.586667-9.6l13.013333-74.026667a8.96 8.96 0 0 0-4.906666-9.6l-128-64a8.96 8.96 0 0 1 1.493333-16.64L512 241.706667a9.173333 9.173333 0 0 0 6.4-8.32l2.773333-92.586667a8.746667 8.746667 0 0 1 14.08-6.826667l68.266667 50.133334a8.96 8.96 0 0 0 11.946667-1.493334zM798.08 130.773333l12.586667-72.533333a10.88 10.88 0 0 1 18.133333-6.4l34.986667 30.933333a10.88 10.88 0 0 1 0 16.64l-47.786667 42.666667a10.88 10.88 0 0 1-17.92-11.306667zM411.946667 176.853333L337.706667 128a10.88 10.88 0 0 0-16.64 11.093333l10.88 56.533334a10.88 10.88 0 0 0 11.946666 8.746666l64-7.253333a10.666667 10.666667 0 0 0 4.053334-20.266667zM868.266667 420.693333l73.6 12.8a8.96 8.96 0 0 1 6.826666 11.946667l-17.493333 46.933333a8.96 8.96 0 0 1-14.933333 2.986667l-56.106667-59.733333a8.96 8.96 0 0 1 8.106667-14.933334z"
          fill="#FF6242" p-id="35812"></path>
    <path d="M632.32 252.16l18.133333-18.346667a8.96 8.96 0 0 1 15.146667 5.333334l5.973333 46.72a8.533333 8.533333 0 0 0 7.04 7.68l38.4 7.68-49.706666 24.96a7.893333 7.893333 0 0 0-4.693334 6.186666l-4.906666 23.893334a8.96 8.96 0 0 1-15.146667 4.693333l-31.573333-31.786667a12.16 12.16 0 0 0-2.773334-1.706666l-40.96-17.706667a8.96 8.96 0 0 1 0-16.426667l19.2-7.68a9.173333 9.173333 0 0 0 5.546667-8.32v-24.106666a8.746667 8.746667 0 0 1 12.8-7.893334l17.066667 8.533334a9.386667 9.386667 0 0 0 10.453333-1.706667z"
          fill="#FFE500" p-id="35813"></path>
</svg>