<?xml version="1.0" standalone="no"?><!DOCTYPE svg PUBLIC "-//W3C//DTD SVG 1.1//EN" "http://www.w3.org/Graphics/SVG/1.1/DTD/svg11.dtd"><svg t="1606624045083" class="icon" viewBox="0 0 1024 1024" version="1.1" xmlns="http://www.w3.org/2000/svg" p-id="54081" xmlns:xlink="http://www.w3.org/1999/xlink" width="16" height="16"><defs><style type="text/css"></style></defs><path d="M454.40568889 353.47342222l116.36053333 0 0 642.49173334-116.36053333 0 0-642.49173334Z" fill="#936969" p-id="54082"></path><path d="M429.57264441 95.31204153l64.17123669-6.28073699 31.53003179 322.14708224-64.1712367 6.28073699-31.53003178-322.14708224Z" fill="#936969" p-id="54083"></path><path d="M233.29381035 383.38469092l45.59273756-45.59273643 240.29713408 240.29713408-45.59273642 45.59273643-240.29713522-240.29713408Z" fill="#936969" p-id="54084"></path><path d="M541.96019314 727.38544299l-45.59273643-45.59273757 240.29713408-240.29713408 45.59273643 45.59273643-240.29713408 240.29713522Z" fill="#936969" p-id="54085"></path><path d="M627.13270499 154.1336064l57.03064463 30.08157014-146.25152797 277.27339406-57.03064462-30.08157014 146.25152796-277.27339406Z" fill="#936969" p-id="54086"></path><path d="M723.38689365 209.02714027l20.34466248 33.32990635-162.05598948 98.91939783-20.34466134-33.32990635 162.05598834-98.91939783Z" fill="#936969" p-id="54087"></path><path d="M497.50228878 266.67231688l-27.61148302 27.61148302-134.25198421-134.25198422 27.61148302-27.61148302 134.25198421 134.25198422Z" fill="#936969" p-id="54088"></path><path d="M521.19911538 706.82449693l-19.52426667 33.81702201-164.4244298-94.93048889 19.52426667-33.81702201 164.4244298 94.93048889Z" fill="#936969" p-id="54089"></path><path d="M514.11848606-145.75606421m-1.40714977 0a1.40714977 1.40714977 0 1 0 2.81429953 0 1.40714977 1.40714977 0 1 0-2.81429952 0Z" fill="#0aaf08" p-id="54090"></path><path d="M509.29375724-145.62208582m-1.40714974 0a1.40714977 1.40714977 0 1 0 2.81429954 0 1.40714977 1.40714977 0 1 0-2.81429954 0Z" fill="#0aaf08" p-id="54091"></path><path d="M508.42267172-142.30502826m-1.40714977 0a1.40714977 1.40714977 0 1 0 2.81429954 0 1.40714977 1.40714977 0 1 0-2.81429954 0Z" fill="#0aaf08" p-id="54092"></path><path d="M508.86936679-138.41844954m-1.40714976 0a1.40714977 1.40714977 0 1 0 2.81429954 0 1.40714977 1.40714977 0 1 0-2.81429954 0Z" fill="#0aaf08" p-id="54093"></path><path d="M515.53693883-140.60746642m-1.40714976 0a1.40714977 1.40714977 0 1 0 2.81429953 0 1.40714977 1.40714977 0 1 0-2.81429953 0Z" fill="#0aaf08" p-id="54094"></path><path d="M515.92787239-143.71217804m-1.40714977 0a1.40714977 1.40714977 0 1 0 2.81429956 0 1.40714977 1.40714977 0 1 0-2.81429956 0Z" fill="#0aaf08" p-id="54095"></path></svg>