<?xml version="1.0" standalone="no"?><!DOCTYPE svg PUBLIC "-//W3C//DTD SVG 1.1//EN"
        "http://www.w3.org/Graphics/SVG/1.1/DTD/svg11.dtd">
<svg t="1605945896873" class="icon" viewBox="0 0 1024 1024" version="1.1" xmlns="http://www.w3.org/2000/svg" p-id="8127"
     width="16" height="16">
    <defs>
        <style type="text/css"></style>
    </defs>
    <path d="M531.626667 423.466667s-105.173333 16.853333-194.56 106.88-122.24 115.84-161.493334 141.866666c-26.666667 17.706667-67.626667 36.48-91.093333 46.72-8.96 3.84-11.52 15.573333-4.906667 22.826667 28.16 30.293333 98.56 100.693333 196.693334 154.88 103.466667 57.386667 213.333333 81.92 252.586666 89.386667 9.386667 1.706667 18.986667-1.28 25.6-8.106667 23.68-24.32 80.426667-88.106667 108.8-165.546667C699.733333 712.746667 723.2 542.08 723.2 542.08l-191.573333-118.613333zM722.56 346.026667l-121.6-75.306667c-9.173333-5.546667-20.906667 0.213333-21.76 10.88l-10.453333 122.666667 85.12 52.693333 85.12 52.693333 105.173333-64c9.173333-5.546667 9.173333-18.773333 0-24.32l-121.6-75.306666z"
          fill="#E4CE1F" p-id="8128"></path>
    <path d="M529.493333 437.333333c-3.413333-3.626667-5.76-7.68-7.253333-11.946666-27.733333 6.4-111.786667 30.933333-185.173333 104.96-89.386667 89.813333-122.24 115.84-161.493334 141.866666-26.666667 17.706667-67.626667 36.48-91.093333 46.72-8.96 3.84-11.52 15.573333-4.906667 22.826667 5.973333 6.4 14.08 14.933333 23.68 24.533333 22.826667-10.88 47.786667-23.68 66.56-36.266666 45.013333-29.866667 82.56-59.52 184.533334-162.133334 71.466667-71.893333 151.466667-102.826667 193.28-114.986666-6.613333-4.693333-12.8-9.813333-18.133334-15.573334zM620.586667 405.76l10.026666-116.693333-29.653333-18.346667c-9.173333-5.546667-20.906667 0.213333-21.76 10.88l-8.533333 100.266667c17.066667 3.84 33.92 14.293333 49.92 23.893333z"
          fill="#F4D851" p-id="8129"></path>
    <path d="M753.066667 583.68l-256.853334-158.933333c-2.986667-1.92-3.84-5.76-2.133333-8.746667l43.093333-69.76c1.92-2.986667 5.76-3.84 8.746667-2.133333l256.853333 158.933333c2.986667 1.92 3.84 5.76 2.133334 8.746667l-43.093334 69.76c-1.92 3.2-5.76 4.053333-8.746666 2.133333z"
          fill="#FF1D25" p-id="8130"></path>
    <path d="M790.186667 495.146667l-22.613334-13.866667c-0.426667 1.066667-0.853333 2.133333-1.493333 2.986667l-39.253333 63.573333c-3.626667 5.76-9.6 9.173333-15.786667 10.026667L740.266667 576c10.026667 6.186667 23.253333 3.2 29.653333-7.04l27.306667-44.16c6.186667-10.026667 2.986667-23.466667-7.04-29.653333z"
          fill="#D30F1E" p-id="8131"></path>
    <path d="M907.52 54.613333l-3.2-1.92-3.2-1.92c-40.32-24.96-93.226667-12.586667-118.186667 27.733334L666.453333 311.466667l56.32 34.773333 56.32 34.773333L935.466667 172.8c24.96-40.32 12.373333-93.226667-27.946667-118.186667z m-71.466667 108.16c-17.28-10.666667-22.613333-33.28-11.946666-50.56S857.386667 89.6 874.666667 100.266667s22.613333 33.28 11.946666 50.56-33.28 22.613333-50.56 11.946666z"
          fill="#CE800D" p-id="8132"></path>
    <path d="M907.52 54.613333l-3.2-1.92-3.2-1.92c-5.76-3.626667-11.733333-6.186667-17.706667-8.32 33.92 26.666667 43.093333 75.093333 19.84 112.64l-155.52 206.72 31.146667 19.2L935.466667 172.8c24.96-40.32 12.373333-93.226667-27.946667-118.186667z"
          fill="#B56904" p-id="8133"></path>
    <path d="M299.52 699.946667C258.346667 736.64 169.173333 775.466667 130.133333 791.466667c11.306667 10.24 24.106667 21.12 37.973334 32.213333 22.4-11.946667 50.773333-29.013333 84.906666-53.333333 36.693333-26.026667 61.226667-53.12 77.44-75.946667 5.973333-8.32-5.333333-17.92-12.8-11.093333-5.12 5.12-11.306667 10.666667-18.133333 16.64zM403.2 740.053333c-4.053333 6.186667-8.746667 13.013333-13.866667 20.48-29.653333 42.24-99.413333 95.786667-136.32 122.666667 7.466667 4.48 15.146667 9.173333 23.253334 13.44 6.186667 3.413333 12.586667 6.826667 18.773333 10.026667 18.133333-16.426667 40.106667-38.186667 65.28-66.986667 29.653333-33.706667 47.36-65.706667 57.813333-91.733333 3.84-9.6-9.173333-16.426667-14.933333-7.893334zM510.08 787.2c-3.2 6.613333-6.613333 14.08-10.666667 22.186667-21.973333 44.16-78.72 103.893333-112.213333 137.173333 15.786667 5.76 31.146667 10.88 45.44 15.36 14.506667-18.133333 31.146667-40.96 49.706667-69.76 24.32-37.76 37.12-72.106667 43.52-99.413333 2.346667-10.026667-11.52-14.72-15.786667-5.546667z"
          fill="#C4A000" p-id="8134"></path>
</svg>