<svg width="16" height="16" xmlns="http://www.w3.org/2000/svg">
 <rect id="frame" width="16" height="16" fill="none"/>
 <g fill="none" fill-rule="evenodd" id="svg_1">
  <path id="svg_2" d="m1.027397,16l15,0l0,-7l-15,0l0,7z" fill="#E6C36A"/>
  <path id="svg_3" d="m7,1l-4,4l4,0l0,-4z" fill-opacity="0.8" fill="#9AA7B0"/>
  <path id="svg_4" d="m8,1l0,5l-5,0l0,2l10,0l0,-7l-5,0z" fill-opacity="0.8" fill="#9AA7B0"/>
  <path fill="#443b24" id="svg_9" d="m5.223621,14.795491l-0.616314,0c-0.10853,0 -0.199713,-0.074152 -0.199713,-0.162376l0,-1.500158c0,-0.243511 -0.199627,-0.448244 -0.598923,-0.607075c0.321146,-0.141179 0.598923,-0.338859 0.598923,-0.610654l0,-1.46131c0,-0.088224 0.091183,-0.16234 0.199713,-0.16234l0.598923,0a0.301943,0.245546 0 0 0 0.303842,-0.24709a0.301943,0.245546 0 0 0 -0.303842,-0.24709l-0.598923,0c-0.44711,0 -0.807353,0.296501 -0.807353,0.656521l0,1.457801c-0.034695,0.095313 -0.477447,0.289448 -0.980915,0.391814a0.303022,0.246423 0 0 0 -0.23005,0.247055c0.004315,0.116509 0.10853,0.215366 0.247354,0.236527c0.599009,0.091698 0.963611,0.285868 0.963611,0.345842l0,1.500158c0,0.363529 0.364601,0.656556 0.807353,0.656556l0.616314,0a0.301986,0.245581 0 0 0 0.303842,-0.24709c0,-0.137705 -0.13891,-0.24709 -0.303842,-0.24709zm5.752277,-2.491467c-0.526037,-0.081346 -0.934698,-0.279341 -0.934698,-0.399499l0,-1.449554c0,-0.364126 -0.365162,-0.657574 -0.808604,-0.657574l-0.695543,0c-0.169592,0 -0.304359,0.109596 -0.304359,0.247476s0.134767,0.247476 0.304359,0.247476l0.695543,0c0.108703,0 0.200015,0.074222 0.200015,0.162621l0,1.449554c0,0.180308 0.104301,0.427784 0.560776,0.636413c-0.299958,0.134336 -0.560776,0.335841 -0.560776,0.636307l0,1.463696c0,0.088364 -0.091312,0.162656 -0.200015,0.162656l-0.730411,0a0.302374,0.245897 0 0 0 -0.304273,0.247511a0.302418,0.245932 0 0 0 0.304273,0.247441l0.726052,0c0.447801,0 0.808648,-0.296993 0.808648,-0.657574l0,-1.463696c0,-0.162586 0.53907,-0.332296 0.925981,-0.385322c0.1478,-0.017687 0.252144,-0.120229 0.256459,-0.240387c0.004402,-0.120334 -0.0999,-0.222841 -0.243427,-0.247546z"/>
 </g>
</svg>