<?xml version="1.0" standalone="no"?><!DOCTYPE svg PUBLIC "-//W3C//DTD SVG 1.1//EN" "http://www.w3.org/Graphics/SVG/1.1/DTD/svg11.dtd"><svg t="1606623942168" class="icon" viewBox="0 0 1024 1024" version="1.1" xmlns="http://www.w3.org/2000/svg" p-id="53726" xmlns:xlink="http://www.w3.org/1999/xlink" width="16" height="16"><defs><style type="text/css"></style></defs><path d="M780.43 157.55c-4.628-6.106-11.954-9.456-19.623-8.974-7.61 0.482-14.482 4.799-18.286 11.417-66.223 115.861-151.982 155.787-227.634 191.001-49.525 23.059-96.297 44.838-131.139 84.339-38.849 44.102-56.965 103.651-56.965 187.252 0 32.033 2.668 67.531 8.005 107.287-99.959 24.025-186.797 10.193-186.797 10.193v91.014c111.489 0 204.009-26.239 271.451-54.581 44.186-16.753 83.175-39.103 117.536-64.774 3.949-2.951 6.077-4.629 6.162-4.713C708.784 579.253 762.287 376.04 762.287 376.04c0 217.181-158.401 405.542-360.591 472.987 62.192 19.794 119.952 28.539 172.203 26.097 58.669-2.782 110.693-19.537 154.624-49.951 93.513-64.605 147.158-189.837 147.158-343.495 0-124.239-35.639-245.412-95.273-324.158l0.023 0.028z m-0.027-0.027z" fill="#3CBA80" p-id="53727"></path></svg>