<?xml version="1.0" standalone="no"?><!DOCTYPE svg PUBLIC "-//W3C//DTD SVG 1.1//EN"
        "http://www.w3.org/Graphics/SVG/1.1/DTD/svg11.dtd">
<svg t="1605938299154" class="icon" viewBox="0 0 1024 1024" version="1.1" xmlns="http://www.w3.org/2000/svg" p-id="2476"
     width="16" height="16">
    <defs>
        <style type="text/css"></style>
    </defs>
    <path d="M409.972 88.25l294.788 0.124-135.013 294.788 0.125 0.062a30.813 30.813 0 0 0-3.104 14.088c0.621 16.725 14.368 29.603 30.876 29.79h0.186c0.496 0 0.9 0.278 1.365 0.247 0.28 0 0.528-0.186 0.807-0.186l180.193 1.862-371.34 441.934 64.202-279.118-0.341-0.093c0.59-2.638 1.396-5.275 1.303-8.099a31.248 31.248 0 0 0-32.427-30.006c-0.31 0-0.558 0.186-0.869 0.186h-230.12L409.973 88.25zM164.771 616.076c0.31 0 0.558-0.156 0.869-0.187h238.188l-84.34 366.717 0.31 0.062c-0.558 2.668-1.365 5.275-1.272 8.068 0.683 17.314 15.205 30.72 32.427 30.068a30.813 30.813 0 0 0 22.497-11.326l495.12-589.142c0.434-0.434 0.775-0.93 1.178-1.396l0.218-0.31h-0.031a30.968 30.968 0 0 0 7.447-21.163 31.061 31.061 0 0 0-30.844-29.789v-0.031h-0.249c-0.465 0-0.837-0.217-1.303-0.186-0.31 0-0.496 0.155-0.776 0.155l-198.128-2.048L781.343 70.284l-0.124-0.062a30.813 30.813 0 0 0 3.103-14.088 31.248 31.248 0 0 0-32.458-30.006c-0.31 0-0.558 0.186-0.869 0.186l-361.41-0.124c-0.465 0-0.837-0.218-1.303-0.218a31.03 31.03 0 0 0-27.306 19.053v-0.031l-0.094 0.217c-0.217 0.559-0.496 1.086-0.713 1.676L134.982 572.664a31 31 0 0 0-2.669 13.436c0.683 17.253 15.205 30.69 32.427 30.007z"
          fill="#efb336" p-id="2477"></path>
</svg>