<svg width="16" height="16" xmlns="http://www.w3.org/2000/svg" class="icon">
 <defs>
  <style type="text/css"/>
 </defs>
 <g>
  <title>background</title>
  <rect fill="none" id="canvas_background" height="18" width="18" y="-1" x="-1"/>
 </g>
 <g>
  <title>Layer 1</title>
  <path id="svg_1" fill="#87939a" d="m676.29714,0l-530.688,0c-14.77485,0 -26.752,11.97714 -26.752,35.21829l0,970.496c0,6.30857 11.97715,18.28571 26.752,18.28571l732.78172,0c14.77485,0 26.752,-11.97714 26.752,-18.28571l0,-768.40229c0,-12.72686 -1.70057,-16.82286 -4.69943,-19.84l-212.77257,-212.77257a16.16457,16.16457 0 0 0 -11.37372,-4.69943z"/>
  <path id="svg_2" fill="#D9D7CA" d="m685.71429,2.76114l0,216.66743l216.66742,0l-216.66742,-216.66743z"/>
  <path stroke="null" id="svg_3" fill="#EEAF4B" d="m989.29329,1024l-954.58657,0a34.84953,43.44741 0 0 1 -34.84953,-43.44741l0,-461.40975l1024.28564,0l0,461.40975c0,23.99557 -15.6025,43.44741 -34.84953,43.44741z"/>
  <path stroke="null" id="svg_4" fill="#000000" d="m251.54319,520.17796l0,383.11671c0,23.13932 -3.13912,42.61735 -9.38126,58.38529a77.61194,105.00561 0 0 1 -25.14902,38.02853c-10.53589,9.56815 -22.62328,16.25609 -36.2622,20.01501s-27.74689,5.6628 -42.17962,5.6628c-7.25244,0 -15.73166,-1.02516 -25.40158,-3.02668s-19.73675,-5.07697 -30.09222,-9.32407s-20.31406,-9.03117 -29.83963,-14.35223a109.03918,147.52533 0 0 1 -24.1748,-18.01352l25.149,-54.04053c3.28344,3.07548 7.97407,6.34622 14.0719,9.66579s12.73688,6.44385 19.9893,9.32407c7.21637,2.92902 14.79355,5.41869 22.69546,7.66429s15.29867,3.31954 22.19029,3.31954c17.39144,0 31.319,-4.58879 41.67447,-13.66879s15.83991,-24.60383 16.52547,-46.37624l0,-376.4288l60.18443,0l0,0.04883zm294.53569,367.05588c0,17.76943 -2.70614,35.05071 -8.15448,51.74615s-13.06161,31.38939 -22.94803,44.03305s-22.04597,22.7976 -36.51477,30.36423a136.06445,184.08935 0 0 1 -49.32381,11.32558c-7.90191,0 -16.02032,-0.58581 -24.42738,-1.6598s-16.88629,-3.02665 -25.40158,-5.66278c-8.5514,-2.68496 -16.70588,-6.34622 -24.42738,-11.03266s-14.39664,-10.34922 -19.98932,-17.03719l10.35547,-57.40893c4.5824,3.56366 10.42764,7.02968 17.49967,10.34922s14.36057,6.44387 21.93774,9.32409c7.54109,2.92902 15.11826,5.22343 22.69544,7.02966c7.54111,1.75743 14.61314,2.68493 21.21609,2.68493c20.06148,0 35.43232,-6.34622 46.11253,-19.03868s16.02032,-31.48702 16.02032,-56.38377c0,-15.1333 -3.78859,-28.02102 -11.32967,-38.71197c-7.57718,-10.69094 -17.03061,-20.35673 -28.36029,-29.04618s-23.5975,-17.33008 -36.76736,-26.01951a222.7329,301.34805 0 0 1 -36.98382,-30.70598a117.77097,159.33906 0 0 1 -28.61288,-41.68982c-7.57718,-16.012 -11.32967,-36.02701 -11.32967,-60.04506c0,-21.77244 2.95871,-41.15281 8.87613,-58.04354s13.89149,-31.29176 23.92221,-43.0567s21.72124,-20.79608 35.03542,-27.04469s27.38609,-9.32407 42.17962,-9.32407c15.11828,0 30.41696,1.90389 45.85997,5.6628c15.443,3.75892 27.9273,9.90987 37.48897,18.35521a480.24868,649.75582 0 0 1 -6.89162,19.03868l-7.39676,19.3316c-2.30924,6.0045 -4.29373,11.03266 -5.91742,15.03567a45.57131,61.65603 0 0 1 -2.95871,6.68794c-1.98449,-1.31808 -4.18548,-3.07548 -6.67512,-5.32106s-6.02567,-4.44236 -10.60805,-6.68796a76.02434,102.85766 0 0 0 -18.25738,-4.68645a172.50706,233.39463 0 0 0 -29.11802,0.68344c-6.60296,0.92753 -12.80902,3.4172 -18.76253,7.66429s-11.22142,9.4217 -15.80382,15.67031a52.17427,70.58954 0 0 0 -10.86062,21.04017a39.68998,53.69884 0 0 0 -3.93291,22.35825c0,17.76943 3.7525,32.12166 11.32967,43.0567c7.54111,10.93503 16.92236,20.45436 28.10771,28.70446c11.18535,8.25008 23.30884,16.25609 36.51479,24.01802c13.13377,7.76193 25.40158,17.28125 36.76734,28.36274s20.78311,25.04318 28.36029,41.68982c7.64934,16.69544 11.47402,38.12616 11.47402,64.38976z"/>
  <polyline stroke-linecap="round" id="svg_9" points="37.3421052631579,-1.4473684210526336 37.3421052631579,-1.4473684210526336 37.3421052631579,-1.4473684210526336 " stroke-opacity="null" stroke-width="null" stroke="null" fill="none"/>
  <polyline stroke-linecap="round" id="svg_10" points="11.5,5.5 11.5,5.5 " stroke-opacity="null" stroke-width="null" stroke="null" fill="none"/>
  <path d="m8.44737,7.92105c-8.44737,-7.92105 -8.44737,-7.92105 -8.44737,-7.92105l8.44737,7.92105l0,0.10526l-0.05263,0.05263" id="svg_11" stroke-opacity="null" stroke-width="null" stroke="null" fill="none"/>
  <path d="m6.28947,7.6579c0,0 -0.01257,-0.07452 0.1579,-0.1579c0.29902,-0.14625 0.62767,-0.28935 0.89474,-0.31579c0.36663,-0.0363 0.68421,0 1,0c0.1579,0 0.26316,0 0.31579,-0.10526l0,-0.15789" id="svg_12" stroke-opacity="null" stroke-width="null" stroke="null" fill="none"/>
  <polyline stroke-linecap="round" id="svg_13" points="7.657894736842102,5.5 7.657894736842102,5.5 " stroke-opacity="null" stroke-width="null" stroke="null" fill="none"/>
  <polyline stroke-linecap="round" id="svg_14" points="5.973684210526315,8.921052631578945 5.973684210526315,8.921052631578945 " stroke-opacity="null" stroke-width="null" stroke="null" fill="none"/>
  <path stroke="#ffffff" id="svg_30" d="m1.30828,8.03452c-0.00468,-0.0033 -0.00974,-0.00595 -0.01388,-0.00631c-0.00023,-0.00002 -0.00046,-0.00004 -0.00071,-0.00004l-0.02727,0c-0.00044,0 -0.00086,0.00012 -0.00117,0.00035c-0.0003,0.00022 -0.00048,0.00053 -0.00048,0.00085l0,0.05023c0,0.00032 0.00017,0.00062 0.00048,0.00085c0.00031,0.00023 0.00073,0.00035 0.00117,0.00035l0.04932,0c0.00044,0 0.00085,-0.00012 0.00117,-0.00035c0.00031,-0.00023 0.00049,-0.00053 0.00049,-0.00085l0,-0.03343c-0.0001,-0.00388 -0.00428,-0.00811 -0.00912,-0.01166zm-0.00233,0.0017c0.00216,0.00153 0.00411,0.00327 0.00556,0.00494c-0.00126,-0.00036 -0.00258,-0.00063 -0.00381,-0.00084c-0.00273,-0.00044 -0.00539,-0.00062 -0.00705,-0.0007c0.00001,-0.00026 0.00001,-0.00055 0.00001,-0.00087c0,-0.0017 -0.00015,-0.00411 -0.00096,-0.00624c-0.00001,-0.00002 -0.00001,-0.00004 -0.00002,-0.00006c0.00205,0.00098 0.00429,0.00229 0.00628,0.00376zm0.00813,0.04217l-0.04601,0l0,-0.04783l0.02563,0l0,0c0.00112,-0.00005 0.00208,0.00075 0.00282,0.00259c0.00067,0.00175 0.00084,0.00402 0.00084,0.0056c0.00001,0.00116 -0.00007,0.00193 -0.00007,0.00193l-0.00013,0.00127l0.00176,0.00001c0.00001,0 0.00407,0.00004 0.00806,0.00069c0.00383,0.0006 0.00682,0.0018 0.0071,0.00315c0.00001,0.00012 0.00001,0.00024 0.00001,0.00036l0,0.03222l0,0z" fill-opacity="null" stroke-opacity="null" stroke-width="0" fill="#87939a"/>
  <path id="svg_32" d="m10.58001,1.73181c-0.70261,-1.0376 -1.46042,-1.86879 -2.08206,-1.9821c-0.03384,-0.00735 -0.06889,-0.01164 -0.10596,-0.01286l-4.09119,0c-0.06527,0 -0.12973,0.03859 -0.17565,0.11025c-0.04552,0.06983 -0.07252,0.16783 -0.07252,0.26767l0,15.77231c0,0.09923 0.02538,0.19417 0.07252,0.26644c0.04714,0.07105 0.10918,0.10964 0.17565,0.10964l7.3984,0c0.06527,0 0.12771,-0.03798 0.17485,-0.10964c0.04714,-0.07166 0.07332,-0.1666 0.07332,-0.26644l0,-10.49548c-0.0145,-1.2183 -0.64218,-2.54684 -1.36736,-3.65979zm-0.34929,0.53411c0.32431,0.48144 0.616,1.02658 0.83355,1.55212c-0.18855,-0.11332 -0.38636,-0.19723 -0.57208,-0.26399c-0.40892,-0.13965 -0.80897,-0.19601 -1.05755,-0.21867c0.00121,-0.08146 0.00161,-0.17334 0.00161,-0.27318c0,-0.53228 -0.02216,-1.29119 -0.14342,-1.96005c-0.00121,-0.00613 -0.00201,-0.01225 -0.00363,-0.01838c0.3078,0.30871 0.64299,0.71848 0.94152,1.18216zm1.2195,13.242l-6.90205,0l0,-15.01769l3.84423,0l0,0.00123c0.1676,-0.01531 0.31223,0.23643 0.42302,0.8122c0.10072,0.5482 0.1261,1.26301 0.1257,1.75854c0.00081,0.36322 -0.01088,0.607 -0.01088,0.607l-0.01974,0.39936l0.26429,0.00429c0.00121,0 0.61076,0.01103 1.20862,0.21744c0.5745,0.18866 1.02371,0.56474 1.0656,0.99044c0.00161,0.03798 0.00201,0.07595 0.00161,0.11148l0,10.11572l-0.0004,0z" fill-opacity="null" stroke-opacity="null" stroke-width="0" stroke="#ffffff" fill="#87939a"/>
  <path id="svg_33" d="m26.22078,6.86244c-0.00872,-0.00847 -0.01812,-0.01525 -0.02584,-0.01618c-0.00042,-0.00006 -0.00085,-0.00009 -0.00131,-0.0001l-0.05077,0c-0.00081,0 -0.00161,0.00031 -0.00218,0.0009c-0.00056,0.00057 -0.0009,0.00137 -0.0009,0.00218l0,0.12875c0,0.00081 0.00031,0.00158 0.0009,0.00217c0.00058,0.00058 0.00135,0.00089 0.00218,0.00089l0.09182,0c0.00081,0 0.00158,-0.00031 0.00217,-0.00089c0.00058,-0.00058 0.00091,-0.00136 0.00091,-0.00217l0,-0.08567c-0.00018,-0.00994 -0.00797,-0.02079 -0.01697,-0.02987zm-0.00433,0.00436c0.00402,0.00393 0.00764,0.00838 0.01034,0.01267c-0.00234,-0.00092 -0.00479,-0.00161 -0.0071,-0.00215c-0.00507,-0.00114 -0.01004,-0.0016 -0.01312,-0.00178c0.00001,-0.00066 0.00002,-0.00141 0.00002,-0.00223c0,-0.00434 -0.00027,-0.01054 -0.00178,-0.016c-0.00001,-0.00005 -0.00002,-0.0001 -0.00004,-0.00015c0.00382,0.00252 0.00798,0.00586 0.01168,0.00965zm0.01513,0.10809l-0.08566,0l0,-0.12259l0.04771,0l0,0.00001c0.00208,-0.00012 0.00387,0.00193 0.00525,0.00663c0.00125,0.00447 0.00156,0.01031 0.00156,0.01435c0.00001,0.00296 -0.00013,0.00495 -0.00013,0.00495l-0.00024,0.00326l0.00328,0.00003c0.00001,0 0.00758,0.00009 0.015,0.00177c0.00713,0.00154 0.0127,0.00461 0.01322,0.00808c0.00002,0.00031 0.00002,0.00062 0.00002,0.00091l0,0.08257l0,0z" fill-opacity="null" stroke-opacity="null" stroke-width="0" stroke="#ffffff" fill="#87939a"/>
  <path id="svg_34" d="m25.0163,10.16165c-0.00872,-0.00847 -0.01812,-0.01525 -0.02584,-0.01618c-0.00042,-0.00006 -0.00085,-0.00009 -0.00131,-0.0001l-0.05077,0c-0.00081,0 -0.00161,0.00031 -0.00218,0.0009c-0.00056,0.00057 -0.0009,0.00137 -0.0009,0.00218l0,0.12875c0,0.00081 0.00031,0.00158 0.0009,0.00217c0.00058,0.00058 0.00135,0.00089 0.00218,0.00089l0.09182,0c0.00081,0 0.00158,-0.00031 0.00217,-0.00089c0.00058,-0.00058 0.00091,-0.00136 0.00091,-0.00217l0,-0.08567c-0.00018,-0.00994 -0.00797,-0.02079 -0.01697,-0.02987zm-0.00433,0.00436c0.00402,0.00393 0.00764,0.00838 0.01034,0.01267c-0.00234,-0.00092 -0.00479,-0.00161 -0.0071,-0.00215c-0.00507,-0.00114 -0.01004,-0.0016 -0.01312,-0.00178c0.00001,-0.00066 0.00002,-0.00141 0.00002,-0.00223c0,-0.00434 -0.00027,-0.01054 -0.00178,-0.016c-0.00001,-0.00005 -0.00002,-0.0001 -0.00004,-0.00015c0.00382,0.00252 0.00798,0.00586 0.01168,0.00965zm0.01513,0.10809l-0.08566,0l0,-0.12259l0.04771,0l0,0.00001c0.00208,-0.00012 0.00387,0.00193 0.00525,0.00663c0.00125,0.00447 0.00156,0.01031 0.00156,0.01435c0.00001,0.00296 -0.00013,0.00495 -0.00013,0.00495l-0.00024,0.00326l0.00328,0.00003c0.00001,0 0.00758,0.00009 0.015,0.00177c0.00713,0.00154 0.0127,0.00461 0.01322,0.00808c0.00002,0.00031 0.00002,0.00062 0.00002,0.00091l0,0.08257l0,0z" fill-opacity="null" stroke-opacity="null" stroke-width="0" stroke="#ffffff" fill="#87939a"/>
  <path id="svg_35" d="m-32.27475,-6.99521c-0.00872,-0.0033 -0.01812,-0.00595 -0.02584,-0.00631c-0.00042,-0.00002 -0.00085,-0.00004 -0.00131,-0.00004l-0.05077,0c-0.00081,0 -0.00161,0.00012 -0.00218,0.00035c-0.00056,0.00022 -0.0009,0.00053 -0.0009,0.00085l0,0.05023c0,0.00032 0.00031,0.00062 0.0009,0.00085c0.00058,0.00023 0.00135,0.00035 0.00218,0.00035l0.09182,0c0.00081,0 0.00158,-0.00012 0.00217,-0.00035c0.00058,-0.00023 0.00091,-0.00053 0.00091,-0.00085l0,-0.03343c-0.00018,-0.00388 -0.00797,-0.00811 -0.01697,-0.01166zm-0.00433,0.0017c0.00402,0.00153 0.00764,0.00327 0.01034,0.00494c-0.00234,-0.00036 -0.00479,-0.00063 -0.0071,-0.00084c-0.00507,-0.00044 -0.01004,-0.00062 -0.01312,-0.0007c0.00001,-0.00026 0.00002,-0.00055 0.00002,-0.00087c0,-0.0017 -0.00027,-0.00411 -0.00178,-0.00624c-0.00001,-0.00002 -0.00002,-0.00004 -0.00004,-0.00006c0.00382,0.00098 0.00798,0.00229 0.01168,0.00376zm0.01513,0.04217l-0.08566,0l0,-0.04783l0.04771,0l0,0c0.00208,-0.00005 0.00387,0.00075 0.00525,0.00259c0.00125,0.00175 0.00156,0.00402 0.00156,0.0056c0.00001,0.00116 -0.00013,0.00193 -0.00013,0.00193l-0.00024,0.00127l0.00328,0.00001c0.00001,0 0.00758,0.00004 0.015,0.00069c0.00713,0.0006 0.0127,0.0018 0.01322,0.00315c0.00002,0.00012 0.00002,0.00024 0.00002,0.00036l0,0.03222l0,0z" fill-opacity="null" stroke-opacity="null" stroke-width="0" stroke="#ffffff" fill="#87939a"/>
  <path id="svg_36" d="m-29.81343,-3.92545c-0.00872,-0.00847 -0.01812,-0.01525 -0.02584,-0.01618c-0.00042,-0.00006 -0.00085,-0.00009 -0.00131,-0.0001l-0.05077,0c-0.00081,0 -0.00161,0.00031 -0.00218,0.0009c-0.00056,0.00057 -0.0009,0.00137 -0.0009,0.00218l0,0.12875c0,0.00081 0.00031,0.00158 0.0009,0.00217c0.00058,0.00058 0.00135,0.00089 0.00218,0.00089l0.09182,0c0.00081,0 0.00158,-0.00031 0.00217,-0.00089c0.00058,-0.00058 0.00091,-0.00136 0.00091,-0.00217l0,-0.08567c-0.00018,-0.00994 -0.00797,-0.02079 -0.01697,-0.02987zm-0.00433,0.00436c0.00402,0.00393 0.00764,0.00838 0.01034,0.01267c-0.00234,-0.00092 -0.00479,-0.00161 -0.0071,-0.00215c-0.00507,-0.00114 -0.01004,-0.0016 -0.01312,-0.00178c0.00001,-0.00066 0.00002,-0.00141 0.00002,-0.00223c0,-0.00434 -0.00027,-0.01054 -0.00178,-0.016c-0.00001,-0.00005 -0.00002,-0.0001 -0.00004,-0.00015c0.00382,0.00252 0.00798,0.00586 0.01168,0.00965zm0.01513,0.10809l-0.08566,0l0,-0.12259l0.04771,0l0,0.00001c0.00208,-0.00012 0.00387,0.00193 0.00525,0.00663c0.00125,0.00447 0.00156,0.01031 0.00156,0.01435c0.00001,0.00296 -0.00013,0.00495 -0.00013,0.00495l-0.00024,0.00326l0.00328,0.00003c0.00001,0 0.00758,0.00009 0.015,0.00177c0.00713,0.00154 0.0127,0.00461 0.01322,0.00808c0.00002,0.00031 0.00002,0.00062 0.00002,0.00091l0,0.08257l0,0z" fill-opacity="null" stroke-opacity="null" stroke-width="0" stroke="#ffffff" fill="#87939a"/>
  <path id="svg_37" d="m4.69736,7.85744c-0.00872,-0.00847 -0.01812,-0.01525 -0.02584,-0.01618c-0.00042,-0.00006 -0.00085,-0.00009 -0.00131,-0.0001l-0.05077,0c-0.00081,0 -0.00161,0.00031 -0.00218,0.0009c-0.00056,0.00057 -0.0009,0.00137 -0.0009,0.00218l0,0.12875c0,0.00081 0.00031,0.00158 0.0009,0.00217c0.00058,0.00058 0.00135,0.00089 0.00218,0.00089l0.09182,0c0.00081,0 0.00158,-0.00031 0.00217,-0.00089c0.00058,-0.00058 0.00091,-0.00136 0.00091,-0.00217l0,-0.08567c-0.00018,-0.00994 -0.00797,-0.02079 -0.01697,-0.02987zm-0.00433,0.00436c0.00402,0.00393 0.00764,0.00838 0.01034,0.01267c-0.00234,-0.00092 -0.00479,-0.00161 -0.0071,-0.00215c-0.00507,-0.00114 -0.01004,-0.0016 -0.01312,-0.00178c0.00001,-0.00066 0.00002,-0.00141 0.00002,-0.00223c0,-0.00434 -0.00027,-0.01054 -0.00178,-0.016c-0.00001,-0.00005 -0.00002,-0.0001 -0.00004,-0.00015c0.00382,0.00252 0.00798,0.00586 0.01168,0.00965zm0.01513,0.10809l-0.08566,0l0,-0.12259l0.04771,0l0,0.00001c0.00208,-0.00012 0.00387,0.00193 0.00525,0.00663c0.00125,0.00447 0.00156,0.01031 0.00156,0.01435c0.00001,0.00296 -0.00013,0.00495 -0.00013,0.00495l-0.00024,0.00326l0.00328,0.00003c0.00001,0 0.00758,0.00009 0.015,0.00177c0.00713,0.00154 0.0127,0.00461 0.01322,0.00808c0.00002,0.00031 0.00002,0.00062 0.00002,0.00091l0,0.08257l0,0z" fill-opacity="null" stroke-opacity="null" stroke-width="0" stroke="#ffffff" fill="#87939a"/>
  <path id="svg_38" d="m4.64499,8.95718c-0.00872,-0.00847 -0.01812,-0.01525 -0.02584,-0.01618c-0.00042,-0.00006 -0.00085,-0.00009 -0.00131,-0.0001l-0.05077,0c-0.00081,0 -0.00161,0.00031 -0.00218,0.0009c-0.00056,0.00057 -0.0009,0.00137 -0.0009,0.00218l0,0.12875c0,0.00081 0.00031,0.00158 0.0009,0.00217c0.00058,0.00058 0.00135,0.00089 0.00218,0.00089l0.09182,0c0.00081,0 0.00158,-0.00031 0.00217,-0.00089c0.00058,-0.00058 0.00091,-0.00136 0.00091,-0.00217l0,-0.08567c-0.00018,-0.00994 -0.00797,-0.02079 -0.01697,-0.02987zm-0.00433,0.00436c0.00402,0.00393 0.00764,0.00838 0.01034,0.01267c-0.00234,-0.00092 -0.00479,-0.00161 -0.0071,-0.00215c-0.00507,-0.00114 -0.01004,-0.0016 -0.01312,-0.00178c0.00001,-0.00066 0.00002,-0.00141 0.00002,-0.00223c0,-0.00434 -0.00027,-0.01054 -0.00178,-0.016c-0.00001,-0.00005 -0.00002,-0.0001 -0.00004,-0.00015c0.00382,0.00252 0.00798,0.00586 0.01168,0.00965zm0.01513,0.10809l-0.08566,0l0,-0.12259l0.04771,0l0,0.00001c0.00208,-0.00012 0.00387,0.00193 0.00525,0.00663c0.00125,0.00447 0.00156,0.01031 0.00156,0.01435c0.00001,0.00296 -0.00013,0.00495 -0.00013,0.00495l-0.00024,0.00326l0.00328,0.00003c0.00001,0 0.00758,0.00009 0.015,0.00177c0.00713,0.00154 0.0127,0.00461 0.01322,0.00808c0.00002,0.00031 0.00002,0.00062 0.00002,0.00091l0,0.08257l0,0z" fill-opacity="null" stroke-opacity="null" stroke-width="0" stroke="#ffffff" fill="#87939a"/>
  <path id="svg_39" d="m4.1213,9.89981c-0.00872,-0.00847 -0.01812,-0.01525 -0.02584,-0.01618c-0.00042,-0.00006 -0.00085,-0.00009 -0.00131,-0.0001l-0.05077,0c-0.00081,0 -0.00161,0.00031 -0.00218,0.0009c-0.00056,0.00057 -0.0009,0.00137 -0.0009,0.00218l0,0.12875c0,0.00081 0.00031,0.00158 0.0009,0.00217c0.00058,0.00058 0.00135,0.00089 0.00218,0.00089l0.09182,0c0.00081,0 0.00158,-0.00031 0.00217,-0.00089c0.00058,-0.00058 0.00091,-0.00136 0.00091,-0.00217l0,-0.08567c-0.00018,-0.00994 -0.00797,-0.02079 -0.01697,-0.02987zm-0.00433,0.00436c0.00402,0.00393 0.00764,0.00838 0.01034,0.01267c-0.00234,-0.00092 -0.00479,-0.00161 -0.0071,-0.00215c-0.00507,-0.00114 -0.01004,-0.0016 -0.01312,-0.00178c0.00001,-0.00066 0.00002,-0.00141 0.00002,-0.00223c0,-0.00434 -0.00027,-0.01054 -0.00178,-0.016c-0.00001,-0.00005 -0.00002,-0.0001 -0.00004,-0.00015c0.00382,0.00252 0.00798,0.00586 0.01168,0.00965zm0.01513,0.10809l-0.08566,0l0,-0.12259l0.04771,0l0,0.00001c0.00208,-0.00012 0.00387,0.00193 0.00525,0.00663c0.00125,0.00447 0.00156,0.01031 0.00156,0.01435c0.00001,0.00296 -0.00013,0.00495 -0.00013,0.00495l-0.00024,0.00326l0.00328,0.00003c0.00001,0 0.00758,0.00009 0.015,0.00177c0.00713,0.00154 0.0127,0.00461 0.01322,0.00808c0.00002,0.00031 0.00002,0.00062 0.00002,0.00091l0,0.08257l0,0z" fill-opacity="null" stroke-opacity="null" stroke-width="0" stroke="#ffffff" fill="#87939a"/>
  <path id="svg_40" d="m2.9692,9.84744c-0.00872,-0.00847 -0.01812,-0.01525 -0.02584,-0.01618c-0.00042,-0.00006 -0.00085,-0.00009 -0.00131,-0.0001l-0.05077,0c-0.00081,0 -0.00161,0.00031 -0.00218,0.0009c-0.00056,0.00057 -0.0009,0.00137 -0.0009,0.00218l0,0.12875c0,0.00081 0.00031,0.00158 0.0009,0.00217c0.00058,0.00058 0.00135,0.00089 0.00218,0.00089l0.09182,0c0.00081,0 0.00158,-0.00031 0.00217,-0.00089c0.00058,-0.00058 0.00091,-0.00136 0.00091,-0.00217l0,-0.08567c-0.00018,-0.00994 -0.00797,-0.02079 -0.01697,-0.02987zm-0.00433,0.00436c0.00402,0.00393 0.00764,0.00838 0.01034,0.01267c-0.00234,-0.00092 -0.00479,-0.00161 -0.0071,-0.00215c-0.00507,-0.00114 -0.01004,-0.0016 -0.01312,-0.00178c0.00001,-0.00066 0.00002,-0.00141 0.00002,-0.00223c0,-0.00434 -0.00027,-0.01054 -0.00178,-0.016c-0.00001,-0.00005 -0.00002,-0.0001 -0.00004,-0.00015c0.00382,0.00252 0.00798,0.00586 0.01168,0.00965zm0.01513,0.10809l-0.08566,0l0,-0.12259l0.04771,0l0,0.00001c0.00208,-0.00012 0.00387,0.00193 0.00525,0.00663c0.00125,0.00447 0.00156,0.01031 0.00156,0.01435c0.00001,0.00296 -0.00013,0.00495 -0.00013,0.00495l-0.00024,0.00326l0.00328,0.00003c0.00001,0 0.00758,0.00009 0.015,0.00177c0.00713,0.00154 0.0127,0.00461 0.01322,0.00808c0.00002,0.00031 0.00002,0.00062 0.00002,0.00091l0,0.08257l0,0z" fill-opacity="null" stroke-opacity="null" stroke-width="0" stroke="#ffffff" fill="#87939a"/>
  <path id="svg_41" d="m9.30578,0.94481c-0.00872,-0.00847 -0.01812,-0.01525 -0.02584,-0.01618c-0.00042,-0.00006 -0.00085,-0.00009 -0.00131,-0.0001l-0.05077,0c-0.00081,0 -0.00161,0.00031 -0.00218,0.0009c-0.00056,0.00057 -0.0009,0.00137 -0.0009,0.00218l0,0.12875c0,0.00081 0.00031,0.00158 0.0009,0.00217c0.00058,0.00058 0.00135,0.00089 0.00218,0.00089l0.09182,0c0.00081,0 0.00158,-0.00031 0.00217,-0.00089c0.00058,-0.00058 0.00091,-0.00136 0.00091,-0.00217l0,-0.08567c-0.00018,-0.00994 -0.00797,-0.02079 -0.01697,-0.02987zm-0.00433,0.00436c0.00402,0.00393 0.00764,0.00838 0.01034,0.01267c-0.00234,-0.00092 -0.00479,-0.00161 -0.0071,-0.00215c-0.00507,-0.00114 -0.01004,-0.0016 -0.01312,-0.00178c0.00001,-0.00066 0.00002,-0.00141 0.00002,-0.00223c0,-0.00434 -0.00027,-0.01054 -0.00178,-0.016c-0.00001,-0.00005 -0.00002,-0.0001 -0.00004,-0.00015c0.00382,0.00252 0.00798,0.00586 0.01168,0.00965zm0.01513,0.10809l-0.08566,0l0,-0.12259l0.04771,0l0,0.00001c0.00208,-0.00012 0.00387,0.00193 0.00525,0.00663c0.00125,0.00447 0.00156,0.01031 0.00156,0.01435c0.00001,0.00296 -0.00013,0.00495 -0.00013,0.00495l-0.00024,0.00326l0.00328,0.00003c0.00001,0 0.00758,0.00009 0.015,0.00177c0.00713,0.00154 0.0127,0.00461 0.01322,0.00808c0.00002,0.00031 0.00002,0.00062 0.00002,0.00091l0,0.08257l0,0z" fill-opacity="null" stroke-opacity="null" stroke-width="0" stroke="#ffffff" fill="#87939a"/>
  <path id="svg_42" d="m9.20104,3.14429c-0.00872,-0.00847 -0.01812,-0.01525 -0.02584,-0.01618c-0.00042,-0.00006 -0.00085,-0.00009 -0.00131,-0.0001l-0.05077,0c-0.00081,0 -0.00161,0.00031 -0.00218,0.0009c-0.00056,0.00057 -0.0009,0.00137 -0.0009,0.00218l0,0.12875c0,0.00081 0.00031,0.00158 0.0009,0.00217c0.00058,0.00058 0.00135,0.00089 0.00218,0.00089l0.09182,0c0.00081,0 0.00158,-0.00031 0.00217,-0.00089c0.00058,-0.00058 0.00091,-0.00136 0.00091,-0.00217l0,-0.08567c-0.00018,-0.00994 -0.00797,-0.02079 -0.01697,-0.02987zm-0.00433,0.00436c0.00402,0.00393 0.00764,0.00838 0.01034,0.01267c-0.00234,-0.00092 -0.00479,-0.00161 -0.0071,-0.00215c-0.00507,-0.00114 -0.01004,-0.0016 -0.01312,-0.00178c0.00001,-0.00066 0.00002,-0.00141 0.00002,-0.00223c0,-0.00434 -0.00027,-0.01054 -0.00178,-0.016c-0.00001,-0.00005 -0.00002,-0.0001 -0.00004,-0.00015c0.00382,0.00252 0.00798,0.00586 0.01168,0.00965zm0.01513,0.10809l-0.08566,0l0,-0.12259l0.04771,0l0,0.00001c0.00208,-0.00012 0.00387,0.00193 0.00525,0.00663c0.00125,0.00447 0.00156,0.01031 0.00156,0.01435c0.00001,0.00296 -0.00013,0.00495 -0.00013,0.00495l-0.00024,0.00326l0.00328,0.00003c0.00001,0 0.00758,0.00009 0.015,0.00177c0.00713,0.00154 0.0127,0.00461 0.01322,0.00808c0.00002,0.00031 0.00002,0.00062 0.00002,0.00091l0,0.08257l0,0z" fill-opacity="null" stroke-opacity="null" stroke-width="0" stroke="#ffffff" fill="#87939a"/>
  <path id="svg_43" d="m10.24841,2.56823c-0.00872,-0.00847 -0.01812,-0.01525 -0.02584,-0.01618c-0.00042,-0.00006 -0.00085,-0.00009 -0.00131,-0.0001l-0.05077,0c-0.00081,0 -0.00161,0.00031 -0.00218,0.0009c-0.00056,0.00057 -0.0009,0.00137 -0.0009,0.00218l0,0.12875c0,0.00081 0.00031,0.00158 0.0009,0.00217c0.00058,0.00058 0.00135,0.00089 0.00218,0.00089l0.09182,0c0.00081,0 0.00158,-0.00031 0.00217,-0.00089c0.00058,-0.00058 0.00091,-0.00136 0.00091,-0.00217l0,-0.08567c-0.00018,-0.00994 -0.00797,-0.02079 -0.01697,-0.02987zm-0.00433,0.00436c0.00402,0.00393 0.00764,0.00838 0.01034,0.01267c-0.00234,-0.00092 -0.00479,-0.00161 -0.0071,-0.00215c-0.00507,-0.00114 -0.01004,-0.0016 -0.01312,-0.00178c0.00001,-0.00066 0.00002,-0.00141 0.00002,-0.00223c0,-0.00434 -0.00027,-0.01054 -0.00178,-0.016c-0.00001,-0.00005 -0.00002,-0.0001 -0.00004,-0.00015c0.00382,0.00252 0.00798,0.00586 0.01168,0.00965zm0.01513,0.10809l-0.08566,0l0,-0.12259l0.04771,0l0,0.00001c0.00208,-0.00012 0.00387,0.00193 0.00525,0.00663c0.00125,0.00447 0.00156,0.01031 0.00156,0.01435c0.00001,0.00296 -0.00013,0.00495 -0.00013,0.00495l-0.00024,0.00326l0.00328,0.00003c0.00001,0 0.00758,0.00009 0.015,0.00177c0.00713,0.00154 0.0127,0.00461 0.01322,0.00808c0.00002,0.00031 0.00002,0.00062 0.00002,0.00091l0,0.08257l0,0z" fill-opacity="null" stroke-opacity="null" stroke-width="0" stroke="#ffffff" fill="#87939a"/>
  <path id="svg_44" d="m11.66236,4.76771c-0.00872,-0.00847 -0.01812,-0.01525 -0.02584,-0.01618c-0.00042,-0.00006 -0.00085,-0.00009 -0.00131,-0.0001l-0.05077,0c-0.00081,0 -0.00161,0.00031 -0.00218,0.0009c-0.00056,0.00057 -0.0009,0.00137 -0.0009,0.00218l0,0.12875c0,0.00081 0.00031,0.00158 0.0009,0.00217c0.00058,0.00058 0.00135,0.00089 0.00218,0.00089l0.09182,0c0.00081,0 0.00158,-0.00031 0.00217,-0.00089c0.00058,-0.00058 0.00091,-0.00136 0.00091,-0.00217l0,-0.08567c-0.00018,-0.00994 -0.00797,-0.02079 -0.01697,-0.02987zm-0.00433,0.00436c0.00402,0.00393 0.00764,0.00838 0.01034,0.01267c-0.00234,-0.00092 -0.00479,-0.00161 -0.0071,-0.00215c-0.00507,-0.00114 -0.01004,-0.0016 -0.01312,-0.00178c0.00001,-0.00066 0.00002,-0.00141 0.00002,-0.00223c0,-0.00434 -0.00027,-0.01054 -0.00178,-0.016c-0.00001,-0.00005 -0.00002,-0.0001 -0.00004,-0.00015c0.00382,0.00252 0.00798,0.00586 0.01168,0.00965zm0.01513,0.10809l-0.08566,0l0,-0.12259l0.04771,0l0,0.00001c0.00208,-0.00012 0.00387,0.00193 0.00525,0.00663c0.00125,0.00447 0.00156,0.01031 0.00156,0.01435c0.00001,0.00296 -0.00013,0.00495 -0.00013,0.00495l-0.00024,0.00326l0.00328,0.00003c0.00001,0 0.00758,0.00009 0.015,0.00177c0.00713,0.00154 0.0127,0.00461 0.01322,0.00808c0.00002,0.00031 0.00002,0.00062 0.00002,0.00091l0,0.08257l0,0z" fill-opacity="null" stroke-opacity="null" stroke-width="0" stroke="#ffffff" fill="#87939a"/>
  <path d="m6.55263,4.5c0,0 0.10526,0.05263 0.26316,0.26316c0.15789,0.21053 0.26219,0.45853 0.31579,0.73684c0.05972,0.31009 0,0.63158 0,0.78947c0,0.1579 -0.00759,0.25969 -0.05263,0.36842c-0.06369,0.15377 -0.15443,0.21812 -0.26316,0.26316c-0.15377,0.06369 -0.26316,0.05263 -0.31579,0.05263c-0.15789,0 -0.19428,-0.10904 -0.26316,-0.36842c-0.08544,-0.32172 -0.14385,-0.68658 -0.10526,-1c0.02651,-0.21538 0.23506,-0.66509 0.78947,-0.89474c0.39203,-0.16238 0.68421,-0.05263 0.94737,-0.05263c0.10526,0 0.23034,-0.04841 0.31579,0.15789c0.10071,0.24313 0,0.57895 0,0.94737c0,0.57895 -0.03161,1.22025 -0.47368,1.57895c-0.22009,0.17858 -0.31579,0.10526 -0.42105,0.10526l-0.15789,0l-0.05263,-0.05263" id="svg_45" fill-opacity="null" stroke-opacity="null" stroke-width="0" stroke="#ffffff" fill="none"/>
  <path d="m6.97368,5.86842c0,0 0.1077,0.0503 0.15789,0.10526c0.2772,0.30354 0.55754,0.69562 0.78947,1.10526c0.33811,0.59716 0.56026,1.11112 0.68421,1.47368c0.18337,0.53638 0.36323,1.03938 0.47368,1.52632c0.09387,0.41382 0.23664,0.78462 0.26316,1c0.05145,0.4179 0.05263,0.63158 0.10526,0.84211l0,0.10526l0,0.10526l0,0.05263" id="svg_46" fill-opacity="null" stroke-opacity="null" stroke-width="0" stroke="#ffffff" fill="none"/>
  <rect id="svg_50" height="5.05263" width="17.15789" y="11.18421" x="-1.07895" fill-opacity="null" stroke-width="0" stroke="#e50404" fill="none"/>
 </g>
</svg>