<?xml version="1.0" standalone="no"?><!DOCTYPE svg PUBLIC "-//W3C//DTD SVG 1.1//EN"
        "http://www.w3.org/Graphics/SVG/1.1/DTD/svg11.dtd">
<svg t="1608476605095" class="icon" viewBox="0 0 1536 1024" version="1.1" xmlns="http://www.w3.org/2000/svg" p-id="6885"
     xmlns:xlink="http://www.w3.org/1999/xlink" width="16" height="16">
    <defs>
        <style type="text/css"></style>
    </defs>
    <path d="M170.666667 85.333333V384q0 17.333333 12.666666 30t30 12.666667H512q28 0 39.333333-26.666667 11.333333-26-9.333333-46L450 262Q548.666667 170.666667 682.666667 170.666667q69.333333 0 132.333333 27T924 270.666667 997 379.666667 1024 512t-27 132.333333T924 753.333333 815 826.333333 682.666667 853.333333q-79.333333 0-150-34.666666t-119.333334-98q-4.666667-6.666667-15.333333-8-10 0-16.666667 6l-91.333333 92q-6 5.333333-6.333333 13.666666t5 15q72.666667 88 176 136.333334t218 48.333333q104 0 198.666666-40.666667t163.333334-109.333333 109.333333-163.333333 40.666667-198.666667-40.666667-198.666667-109.333333-163.333333-163.333334-109.333333-198.666666-40.666667q-98 0-189.666667 37T330 141.333333l-86.666667-86q-19.333333-20.666667-46.666666-9.333333-26 11.333333-26 39.333333z"
          p-id="6886"></path>
</svg>