<?xml version="1.0" standalone="no"?><!DOCTYPE svg PUBLIC "-//W3C//DTD SVG 1.1//EN"
        "http://www.w3.org/Graphics/SVG/1.1/DTD/svg11.dtd">
<svg t="1608610948183" class="icon" viewBox="0 0 1024 1024" version="1.1" xmlns="http://www.w3.org/2000/svg" p-id="6455"
     xmlns:xlink="http://www.w3.org/1999/xlink" width="16" height="16">
    <defs>
        <style type="text/css"></style>
    </defs>
    <path d="M950.857143 146.285714v256q0 14.857143-10.857143 25.714286t-25.714286 10.857143h-256q-24 0-33.714285-22.857143-9.714286-22.285714 8-39.428571l78.857142-78.857143q-84.571429-78.285714-199.428571-78.285715-59.428571 0-113.428571 23.142858T305.142857 305.142857 242.571429 398.571429 219.428571 512t23.142858 113.428571T305.142857 718.857143t93.428572 62.571428T512 804.571429q68 0 128.571429-29.714286t102.285714-84q4-5.714286 13.142857-6.857143 8 0 14.285714 5.142857l78.285715 78.857143q5.142857 4.571429 5.428571 11.714286t-4.285714 12.857143q-62.285714 75.428571-150.857143 116.857142T512 950.857143q-89.142857 0-170.285714-34.857143t-140-93.714286-93.714286-140-34.857143-170.285714 34.857143-170.285714 93.714286-140 140-93.714286 170.285714-34.857143q84 0 162.571429 31.714286T814.285714 194.285714l74.285715-73.714285q16.571429-17.714286 40-8 22.285714 9.714286 22.285714 33.714285z"
          p-id="6456" fill="#afb1b3"></path>
</svg>