<?xml version="1.0" standalone="no"?><!DOCTYPE svg PUBLIC "-//W3C//DTD SVG 1.1//EN"
        "http://www.w3.org/Graphics/SVG/1.1/DTD/svg11.dtd">
<svg t="1605959073506" class="icon" viewBox="0 0 1280 1024" version="1.1" xmlns="http://www.w3.org/2000/svg"
     p-id="29900"
     width="16" height="16">
    <defs>
        <style type="text/css"></style>
    </defs>
    <path d="M1272.00996 1.134101s15.671449 0.25586 1.087406 49.445022c-14.584043 49.253126-86.288919 226.884206-77.141909 270.572369 0 0 8.059602 40.298012 28.144643 43.944023l20.085041 3.64601s29.23205 21.876064 18.230054 45.543151c-10.874067 23.667087-25.58604 45.543151-31.023073 52.835172a549.20434 549.20434 0 0 1-18.230054 21.876064s-20.085041 236.798797-178.846416 378.929246c0 0-162.407386 191.255646-602.167443 129.337431 0 0-140.531323-45.543151-302.938709-38.25113 0 0-288.290701-20.085041-3.646011-96.587299l3.582046-0.703616c23.219331-4.861348 151.597285-32.750131 169.763373-57.568589 0 0-82.067222-326.094075 228.099543-455.431506 0 0 308.439708-103.879321 441.615044 207.630712l1.535162-3.00636c13.496636-26.865342 111.619098-222.342684 116.736306-259.698302 5.437033-40.042152 2.430674-140.083567-12.153369-216.64979 0 0-33.005991-67.099389-11.001997-64.860611 0 0 18.038158-5.948754 25.330179 30.511352 7.292021 36.460106 38.379059 185.818613 54.754125 207.694677 0 0 63.709239-78.805002 98.378322-200.850411 0 0 1.151372-55.009985 29.807737-48.357615zM648.606104 432.962485a198.227842 198.227842 0 1 0 0 396.391719 198.227842 198.227842 0 0 0 0-396.391719z m0 36.012351a162.151526 162.151526 0 1 1 0 324.303052 162.151526 162.151526 0 0 1 0-324.303052z"
          fill="#33BCB7" p-id="29901"></path>
</svg>